<svg xmlns="http://www.w3.org/2000/svg" width="59.324" height="59.324" viewBox="0 0 59.324 59.324"><path d="M981.162,109.5a29.662,29.662,0,1,0,29.662,29.662A29.663,29.663,0,0,0,981.162,109.5Zm-28.3,29.662a28.165,28.165,0,0,1,7.223-18.838v31.606h10.2a13.215,13.215,0,0,0,7.929-2.313,7.3,7.3,0,0,0,1.869-1.958v17.6h10.2a17.068,17.068,0,0,0,2.126-.136,28.289,28.289,0,0,1-39.545-25.963Zm16.836-.98a9.021,9.021,0,0,1,4.515,1.035,3.575,3.575,0,0,1,1.82,3.369,3.809,3.809,0,0,1-1.661,3.346,7.451,7.451,0,0,1-4.314,1.146h-4.717v-8.9Zm-4.357-5.031v-8.9h3.909a6,6,0,0,1,3.8,1.078,3.867,3.867,0,0,1,1.369,3.236,4.793,4.793,0,0,1-1.145,3.279,4.278,4.278,0,0,1-3.393,1.3ZM989.7,151.514a9.021,9.021,0,0,1,4.515,1.035,3.575,3.575,0,0,1,1.82,3.369,3.809,3.809,0,0,1-1.661,3.346,7.452,7.452,0,0,1-4.314,1.146H985.34v-8.9Zm-4.357-5.031v-8.9h3.909a6,6,0,0,1,3.8,1.079,3.866,3.866,0,0,1,1.369,3.236,4.792,4.792,0,0,1-1.145,3.28,4.278,4.278,0,0,1-3.393,1.3Zm15.483,13.007a10.352,10.352,0,0,0,.6-3.618,7.206,7.206,0,0,0-1.55-4.582,10.232,10.232,0,0,0-4.29-3.1,8.1,8.1,0,0,0,3.123-2.988,8.545,8.545,0,0,0,1.1-4.425,7.145,7.145,0,0,0-2.83-6.132q-2.829-2.09-7.952-2.089h-8.94v5.718c-.073-.1-.128-.213-.208-.315a10.232,10.232,0,0,0-4.29-3.1,8.1,8.1,0,0,0,3.123-2.988,8.546,8.546,0,0,0,1.1-4.425,7.145,7.145,0,0,0-2.83-6.132q-2.83-2.09-7.952-2.089h-7.94a28.287,28.287,0,1,1,39.737,40.266Z" transform="translate(-951.5 -109.5)" fill="#fff"/></svg>