<svg xmlns="http://www.w3.org/2000/svg" width="637.782" height="59.583" viewBox="0 0 637.782 59.583"><g transform="translate(-625.958 -512.76)" style="isolation:isolate"><g style="isolation:isolate"><path d="M653.27,540.474a9.969,9.969,0,0,1,2.138,6.325q0,6.573-4.433,9.764a18.222,18.222,0,0,1-10.943,3.194H625.958V514.621H638.3q7.068,0,10.975,2.882t3.905,8.463a11.8,11.8,0,0,1-1.519,6.108,11.193,11.193,0,0,1-4.309,4.123A14.143,14.143,0,0,1,653.27,540.474Zm-20.058-6.634h6.262a5.9,5.9,0,0,0,4.681-1.8,6.6,6.6,0,0,0,1.581-4.526,5.336,5.336,0,0,0-1.891-4.464,8.272,8.272,0,0,0-5.239-1.488h-5.394Zm12.462,17.639a5.253,5.253,0,0,0,2.294-4.619,4.937,4.937,0,0,0-2.51-4.649,12.473,12.473,0,0,0-6.232-1.426h-6.014v12.276h6.51A10.27,10.27,0,0,0,645.674,551.479Z" fill="#2e5180"/><path d="M692.329,540.474a9.964,9.964,0,0,1,2.139,6.325q0,6.573-4.433,9.764a18.225,18.225,0,0,1-10.943,3.194H665.018V514.621h12.338q7.068,0,10.974,2.882t3.906,8.463a11.8,11.8,0,0,1-1.519,6.108,11.193,11.193,0,0,1-4.309,4.123A14.133,14.133,0,0,1,692.329,540.474Zm-20.057-6.634h6.262a5.9,5.9,0,0,0,4.681-1.8,6.6,6.6,0,0,0,1.581-4.526,5.336,5.336,0,0,0-1.891-4.464,8.272,8.272,0,0,0-5.239-1.488h-5.394Zm12.462,17.639a5.253,5.253,0,0,0,2.294-4.619,4.936,4.936,0,0,0-2.511-4.649,12.469,12.469,0,0,0-6.231-1.426h-6.014v12.276h6.51A10.274,10.274,0,0,0,684.734,551.479Z" fill="#2e5180"/><path d="M747.1,549.155h-16.43l-4.34,10.6H719.2l19.964-47h.435l19.963,47h-8.308Zm-2.417-6.2-5.643-14.26-5.828,14.26Z" fill="#2e5180"/><path d="M767.967,559.229a11.425,11.425,0,0,1-4.433-3.068l2.914-3.906q3.285,3.223,6.7,3.224a5.973,5.973,0,0,0,3.069-.713,2.326,2.326,0,0,0,1.209-2.139,2.437,2.437,0,0,0-1.24-2.232,12.378,12.378,0,0,0-2.759-1.209q-1.521-.465-1.953-.589a10.394,10.394,0,0,1-5.084-3.069,7.189,7.189,0,0,1-1.674-4.743,7.889,7.889,0,0,1,4.371-7.13,11.238,11.238,0,0,1,5.363-1.179,17.551,17.551,0,0,1,5.177.683,12.984,12.984,0,0,1,4.123,2.17l-2.666,4.153a8.3,8.3,0,0,0-2.7-1.674,8,8,0,0,0-2.883-.62,4.514,4.514,0,0,0-2.667.744,2.482,2.482,0,0,0,0,4.062,16.63,16.63,0,0,0,3.6,1.519q1.053.31,1.364.434a11.6,11.6,0,0,1,4.836,2.759,6.31,6.31,0,0,1,1.736,4.619,8.416,8.416,0,0,1-2.759,6.417q-2.76,2.572-7.9,2.572A15.224,15.224,0,0,1,767.967,559.229Z" fill="#2e5180"/><path d="M794.192,559.229a11.44,11.44,0,0,1-4.433-3.068l2.914-3.906q3.287,3.223,6.7,3.224a5.972,5.972,0,0,0,3.069-.713,2.325,2.325,0,0,0,1.209-2.139,2.437,2.437,0,0,0-1.24-2.232,12.336,12.336,0,0,0-2.759-1.209q-1.52-.465-1.953-.589a10.4,10.4,0,0,1-5.084-3.069,7.189,7.189,0,0,1-1.674-4.743,7.889,7.889,0,0,1,4.371-7.13,11.241,11.241,0,0,1,5.363-1.179,17.546,17.546,0,0,1,5.177.683,12.973,12.973,0,0,1,4.123,2.17l-2.666,4.153a8.289,8.289,0,0,0-2.7-1.674,8,8,0,0,0-2.883-.62,4.513,4.513,0,0,0-2.666.744,2.481,2.481,0,0,0,0,4.062,16.592,16.592,0,0,0,3.6,1.519q1.053.31,1.365.434a11.6,11.6,0,0,1,4.835,2.759,6.31,6.31,0,0,1,1.736,4.619,8.416,8.416,0,0,1-2.758,6.417q-2.76,2.572-7.906,2.572A15.227,15.227,0,0,1,794.192,559.229Z" fill="#2e5180"/><path d="M819.208,521.534A4.13,4.13,0,0,1,822,520.449a3.942,3.942,0,0,1,2.7,1.085,3.41,3.41,0,0,1,1.209,2.634,3.318,3.318,0,0,1-1.209,2.6,4,4,0,0,1-2.7,1.055,4.192,4.192,0,0,1-2.791-1.055,3.284,3.284,0,0,1-1.24-2.6A3.373,3.373,0,0,1,819.208,521.534Zm6.014,12v26.226h-6.944V533.531Z" fill="#2e5180"/><path d="M836.909,559.229a11.432,11.432,0,0,1-4.433-3.068l2.914-3.906q3.286,3.223,6.7,3.224a5.973,5.973,0,0,0,3.069-.713,2.326,2.326,0,0,0,1.209-2.139,2.437,2.437,0,0,0-1.24-2.232,12.358,12.358,0,0,0-2.759-1.209q-1.52-.465-1.953-.589a10.4,10.4,0,0,1-5.084-3.069,7.189,7.189,0,0,1-1.674-4.743,7.889,7.889,0,0,1,4.371-7.13,11.241,11.241,0,0,1,5.363-1.179,17.546,17.546,0,0,1,5.177.683,12.973,12.973,0,0,1,4.123,2.17l-2.666,4.153a8.3,8.3,0,0,0-2.7-1.674,8,8,0,0,0-2.883-.62,4.513,4.513,0,0,0-2.666.744,2.481,2.481,0,0,0,0,4.062,16.6,16.6,0,0,0,3.6,1.519q1.053.31,1.364.434a11.6,11.6,0,0,1,4.836,2.759,6.31,6.31,0,0,1,1.736,4.619,8.413,8.413,0,0,1-2.759,6.417q-2.76,2.572-7.905,2.572A15.228,15.228,0,0,1,836.909,559.229Z" fill="#2e5180"/><path d="M870.481,522v11.532h6.82v5.456h-6.82v20.77h-6.944v-20.77h-4.526v-5.456h4.526V522Z" fill="#2e5180"/><path d="M911.586,533.531v26.226h-6.944v-3.782a14.511,14.511,0,0,1-3.844,3.069,11.091,11.091,0,0,1-5.642,1.394,14.17,14.17,0,0,1-6.758-1.581,11.532,11.532,0,0,1-4.712-4.68,15.131,15.131,0,0,1-1.736-7.5,15.329,15.329,0,0,1,1.8-7.534,12.923,12.923,0,0,1,4.8-5.021,12.787,12.787,0,0,1,6.6-1.768q6.386,0,9.548,4.712l.5-3.533Zm-9.7,19.747a7.76,7.76,0,0,0,2.759-4.123v-5.7a7.252,7.252,0,0,0-2.883-3.907,8.418,8.418,0,0,0-4.929-1.488,7.547,7.547,0,0,0-5.58,2.325,8.084,8.084,0,0,0-2.294,5.922,8.437,8.437,0,0,0,4.092,7.316,7.692,7.692,0,0,0,4.03,1.115A7.811,7.811,0,0,0,901.883,553.278Z" fill="#2e5180"/><path d="M944.415,534.616a7.474,7.474,0,0,1,2.511,5.673v19.468h-6.944V542.769a5.063,5.063,0,0,0-1.209-3.225,4.4,4.4,0,0,0-3.255-1.24,6.37,6.37,0,0,0-5.3,2.759,11.381,11.381,0,0,0-2.077,7.038v11.656H921.2V533.531h6.262l.5,4.649a10.214,10.214,0,0,1,4.123-4.247,12.487,12.487,0,0,1,6.231-1.518A8.8,8.8,0,0,1,944.415,534.616Z" fill="#2e5180"/><path d="M965.959,522v11.532h6.82v5.456h-6.82v20.77h-6.944v-20.77h-4.526v-5.456h4.526V522Z" fill="#2e5180"/><path d="M1028.856,558.951a21.834,21.834,0,0,1-7.657,1.3,23.787,23.787,0,0,1-12.244-3.069,21.139,21.139,0,0,1-8.06-8.246,23.386,23.386,0,0,1-2.821-11.378,25.454,25.454,0,0,1,2.821-12.09,20.826,20.826,0,0,1,7.874-8.339,22.059,22.059,0,0,1,11.5-3.006,24.6,24.6,0,0,1,7.347,1.053,26.141,26.141,0,0,1,5.983,2.666l-2.852,6.758a17.623,17.623,0,0,0-10.23-3.534,13.785,13.785,0,0,0-7.41,2.14,15.669,15.669,0,0,0-5.487,5.828,16.41,16.41,0,0,0-2.045,8.09,18,18,0,0,0,1.891,8.34,13.944,13.944,0,0,0,5.393,5.765,15.551,15.551,0,0,0,8.091,2.078,16.673,16.673,0,0,0,5.922-.993,14.548,14.548,0,0,0,4.433-2.542l3.038,6.449A23.706,23.706,0,0,1,1028.856,558.951Z" fill="#2e5180"/><path d="M1042.248,539.234a13.4,13.4,0,0,1,5.238-5.053,15.656,15.656,0,0,1,7.627-1.829,15.473,15.473,0,0,1,7.595,1.829,12.876,12.876,0,0,1,5.114,5.023,15.15,15.15,0,0,1,0,14.321,13.075,13.075,0,0,1-5.114,5.054,15.405,15.405,0,0,1-7.657,1.859,16.432,16.432,0,0,1-7.565-1.705,12.6,12.6,0,0,1-5.238-4.9,14.375,14.375,0,0,1-1.891-7.471A13.828,13.828,0,0,1,1042.248,539.234Zm7.285,13.114a6.991,6.991,0,0,0,5.394,2.386,7.077,7.077,0,0,0,5.487-2.355,8.517,8.517,0,0,0,2.139-5.952,8.636,8.636,0,0,0-2.139-5.984,7.041,7.041,0,0,0-5.487-2.387,6.916,6.916,0,0,0-5.394,2.449,8.621,8.621,0,0,0-2.17,5.922A8.472,8.472,0,0,0,1049.533,552.348Z" fill="#2e5180"/><path d="M1117.082,534.522a7.962,7.962,0,0,1,2.387,5.7v19.531h-6.883V542.893a6.28,6.28,0,0,0-.93-3.256,3.32,3.32,0,0,0-2.666-1.27,6.058,6.058,0,0,0-5.207,2.883,11.913,11.913,0,0,0-2.047,6.727v11.78h-7.006V542.893a6.151,6.151,0,0,0-.96-3.225,3.445,3.445,0,0,0-2.759-1.3,5.593,5.593,0,0,0-3.72,1.363,9.021,9.021,0,0,0-2.512,3.6,12.334,12.334,0,0,0-.9,4.65v11.78h-6.944V533.531h6.262l.558,4.588a10.6,10.6,0,0,1,4.03-4.279,11.315,11.315,0,0,1,5.828-1.488,9.5,9.5,0,0,1,5.3,1.4,6.573,6.573,0,0,1,2.82,4,11.739,11.739,0,0,1,4.092-3.968,10.186,10.186,0,0,1,5.147-1.427A8.461,8.461,0,0,1,1117.082,534.522Z" fill="#2e5180"/><path d="M1152.887,534.088a12,12,0,0,1,4.65,4.96,16.076,16.076,0,0,1,1.674,7.5,14.476,14.476,0,0,1-1.829,7.378,12.212,12.212,0,0,1-5.084,4.836,15.832,15.832,0,0,1-7.347,1.673,12.452,12.452,0,0,1-5.022-1.053,10.85,10.85,0,0,1-3.968-2.852v15.81h-6.944V533.035h6.014l.619,3.905a15.72,15.72,0,0,1,4.744-3.348,13.861,13.861,0,0,1,5.858-1.24A12.941,12.941,0,0,1,1152.887,534.088Zm-5.053,19.748a8.564,8.564,0,0,0,3.131-2.945,7.716,7.716,0,0,0,1.178-4.216,8.318,8.318,0,0,0-2.325-6.046,7.7,7.7,0,0,0-5.736-2.386,8.557,8.557,0,0,0-5.114,1.487,8.3,8.3,0,0,0-3.007,4.155v5.27a7.3,7.3,0,0,0,2.7,4.154,7.8,7.8,0,0,0,4.929,1.612A8.6,8.6,0,0,0,1147.834,553.836Z" fill="#2e5180"/><path d="M1193.992,533.531v26.226h-6.943v-3.782a14.524,14.524,0,0,1-3.844,3.069,11.1,11.1,0,0,1-5.642,1.394,14.167,14.167,0,0,1-6.758-1.581,11.527,11.527,0,0,1-4.713-4.68,15.142,15.142,0,0,1-1.736-7.5,15.328,15.328,0,0,1,1.8-7.534,12.929,12.929,0,0,1,4.8-5.021,12.788,12.788,0,0,1,6.6-1.768q6.384,0,9.547,4.712l.5-3.533Zm-9.7,19.747a7.755,7.755,0,0,0,2.76-4.123v-5.7a7.251,7.251,0,0,0-2.883-3.907,8.421,8.421,0,0,0-4.93-1.488,7.549,7.549,0,0,0-5.58,2.325,8.084,8.084,0,0,0-2.294,5.922,8.44,8.44,0,0,0,4.093,7.316,7.686,7.686,0,0,0,4.029,1.115A7.811,7.811,0,0,0,1184.289,553.278Z" fill="#2e5180"/><path d="M1226.82,534.616a7.471,7.471,0,0,1,2.512,5.673v19.468h-6.944V542.769a5.062,5.062,0,0,0-1.209-3.225,4.4,4.4,0,0,0-3.255-1.24,6.368,6.368,0,0,0-5.3,2.759,11.376,11.376,0,0,0-2.078,7.038v11.656H1203.6V533.531h6.261l.5,4.649a10.233,10.233,0,0,1,4.123-4.247,12.491,12.491,0,0,1,6.232-1.518A8.8,8.8,0,0,1,1226.82,534.616Z" fill="#2e5180"/><path d="M1263.74,533.531l-16.926,38.812h-6.82l6.139-13.7-12.153-25.11h7.813l7.812,17.36,7.812-17.36Z" fill="#2e5180"/></g></g></svg>